<?xml version="1.0" encoding="utf-8"?>
<!-- Generator: Adobe Illustrator 22.1.0, SVG Export Plug-In . SVG Version: 6.00 Build 0)  -->
<svg version="1.1" id="Layer_1" xmlns="http://www.w3.org/2000/svg" xmlns:xlink="http://www.w3.org/1999/xlink" x="0px" y="0px"
	 viewBox="0 0 324 216" style="enable-background:new 0 0 324 216;" xml:space="preserve">
<style type="text/css">
	.st0{fill:#E51E44;}
</style>
<g>
	<g>
		<g>
			<path class="st0" d="M164.6,90.6V73.4c0-0.3,0.1-0.4,0.4-0.4h2.6c0.3,0,0.4,0.1,0.4,0.4v7c0,0.1,0,0.1,0.1,0.1c0,0,0.1,0,0.1-0.1
				l5.5-7.3c0.1-0.2,0.3-0.3,0.5-0.3h2.9c0.1,0,0.2,0,0.3,0.1c0.1,0,0.1,0.1,0.1,0.2c0,0.1,0,0.2-0.1,0.3l-5.2,7.2
				c0,0.1,0,0.1,0,0.2l5.5,9.6c0,0.1,0.1,0.1,0.1,0.2c0,0.2-0.1,0.3-0.3,0.3h-2.9c-0.2,0-0.4-0.1-0.5-0.3l-4.2-7.3
				c0-0.1,0-0.1-0.1-0.1s-0.1,0-0.1,0.1l-1.5,2c0,0.1-0.1,0.1-0.1,0.2v5c0,0.3-0.1,0.4-0.4,0.4H165C164.7,91,164.6,90.9,164.6,90.6z
				"/>
			<path class="st0" d="M193.4,76.1h-7.7c-0.1,0-0.1,0.1-0.1,0.2v3.9c0,0.1,0,0.2,0.1,0.2h5c0.3,0,0.4,0.1,0.4,0.4V83
				c0,0.3-0.1,0.4-0.4,0.4h-5c-0.1,0-0.1,0.1-0.1,0.2v4.1c0,0.1,0,0.2,0.1,0.2h7.7c0.3,0,0.4,0.1,0.4,0.4v2.2c0,0.3-0.1,0.4-0.4,0.4
				h-10.8c-0.3,0-0.4-0.1-0.4-0.4V73.4c0-0.3,0.1-0.4,0.4-0.4h10.8c0.3,0,0.4,0.1,0.4,0.4v2.2C193.8,76,193.7,76.1,193.4,76.1z"/>
			<path class="st0" d="M203,90.5v-6.4l0-0.2l-4.8-10.5c0-0.1-0.1-0.2-0.1-0.2c0-0.1,0-0.2,0.1-0.2c0.1-0.1,0.2-0.1,0.3-0.1h2.8
				c0.2,0,0.4,0.1,0.5,0.3l2.9,6.7c0,0.1,0.1,0.1,0.1,0.1c0,0,0.1,0,0.1-0.1l2.9-6.7c0.1-0.2,0.3-0.3,0.5-0.3h2.8
				c0.2,0,0.4,0.1,0.4,0.3c0,0.1,0,0.2,0,0.2L206.4,84l0,0.2v6.4c0,0.3-0.1,0.4-0.4,0.4h-2.5C203.1,91,203,90.8,203,90.5z"/>
			<path class="st0" d="M217.8,90.5c-0.9-0.4-1.7-1.1-2.2-1.9c-0.5-0.8-0.8-1.8-0.8-2.8v-0.4c0-0.3,0.1-0.4,0.4-0.4h2.5
				c0.3,0,0.4,0.1,0.4,0.3v0.4c0,0.7,0.3,1.3,0.9,1.7c0.6,0.5,1.3,0.7,2.3,0.7c0.8,0,1.5-0.2,1.9-0.6c0.4-0.4,0.6-0.9,0.6-1.4
				c0-0.4-0.1-0.8-0.4-1c-0.3-0.3-0.6-0.5-1-0.7c-0.4-0.2-1.1-0.5-2.1-0.9c-1.1-0.4-2-0.8-2.7-1.2c-0.7-0.4-1.4-1-1.9-1.7
				c-0.5-0.7-0.8-1.6-0.8-2.6c0-1,0.2-1.9,0.7-2.7c0.5-0.8,1.2-1.4,2.1-1.8c0.9-0.4,1.9-0.6,3-0.6c1.2,0,2.3,0.2,3.3,0.7
				c1,0.5,1.7,1.1,2.2,1.9c0.5,0.8,0.8,1.8,0.8,2.9v0.3c0,0.3-0.1,0.4-0.4,0.4h-2.5c-0.3,0-0.4-0.1-0.4-0.3v-0.3
				c0-0.7-0.3-1.3-0.8-1.8c-0.6-0.5-1.3-0.8-2.3-0.8c-0.8,0-1.4,0.2-1.8,0.5c-0.4,0.3-0.6,0.8-0.6,1.4c0,0.4,0.1,0.8,0.4,1.1
				c0.2,0.3,0.6,0.6,1.1,0.8c0.5,0.2,1.2,0.5,2.3,0.9c1.1,0.4,2,0.8,2.7,1.2c0.7,0.3,1.2,0.8,1.8,1.5c0.5,0.7,0.8,1.6,0.8,2.7
				c0,1-0.3,2-0.8,2.8c-0.5,0.8-1.2,1.4-2.1,1.8c-0.9,0.4-2,0.6-3.3,0.6S218.7,91,217.8,90.5z"/>
			<path class="st0" d="M176.5,100.6v2.3c0,0.3-0.1,0.4-0.4,0.4h-4.2c-0.1,0-0.1,0.1-0.1,0.2v14.3c0,0.3-0.1,0.4-0.4,0.4h-2.6
				c-0.3,0-0.4-0.1-0.4-0.4v-14.3c0-0.1,0-0.2-0.1-0.2h-4c-0.3,0-0.4-0.1-0.4-0.4v-2.3c0-0.3,0.1-0.4,0.4-0.4h11.9
				C176.3,100.1,176.5,100.3,176.5,100.6z"/>
			<path class="st0" d="M183.2,117.6c-1-0.5-1.7-1.3-2.2-2.3c-0.5-1-0.8-2.1-0.8-3.4v-5.5c0-1.3,0.3-2.4,0.8-3.4
				c0.5-1,1.3-1.7,2.2-2.3c1-0.5,2.1-0.8,3.3-0.8c1.3,0,2.4,0.3,3.3,0.8c1,0.5,1.7,1.3,2.2,2.3c0.5,1,0.8,2.1,0.8,3.4v5.5
				c0,1.3-0.3,2.4-0.8,3.4c-0.5,1-1.3,1.8-2.2,2.3c-1,0.5-2.1,0.8-3.3,0.8C185.2,118.4,184.1,118.1,183.2,117.6z M188.6,114.4
				c0.5-0.6,0.8-1.4,0.8-2.4v-5.7c0-1-0.3-1.8-0.8-2.4c-0.5-0.6-1.3-0.9-2.1-0.9c-0.9,0-1.6,0.3-2.1,0.9c-0.5,0.6-0.8,1.4-0.8,2.4
				v5.7c0,1,0.3,1.8,0.8,2.4c0.5,0.6,1.2,0.9,2.1,0.9C187.3,115.3,188.1,115,188.6,114.4z"/>
			<path class="st0" d="M167,143.5c-0.9-0.4-1.7-1.1-2.2-1.9c-0.5-0.8-0.8-1.8-0.8-2.8v-0.4c0-0.3,0.1-0.4,0.4-0.4h2.5
				c0.3,0,0.4,0.1,0.4,0.3v0.4c0,0.7,0.3,1.3,0.9,1.7c0.6,0.5,1.3,0.7,2.3,0.7c0.8,0,1.5-0.2,1.9-0.6c0.4-0.4,0.6-0.9,0.6-1.4
				c0-0.4-0.1-0.8-0.4-1c-0.3-0.3-0.6-0.5-1-0.7c-0.4-0.2-1.1-0.5-2.1-0.9c-1.1-0.4-2-0.8-2.7-1.2c-0.7-0.4-1.4-1-1.9-1.7
				c-0.5-0.7-0.8-1.6-0.8-2.6c0-1,0.2-1.9,0.7-2.7c0.5-0.8,1.2-1.4,2.1-1.8c0.9-0.4,1.9-0.6,3-0.6c1.2,0,2.3,0.2,3.3,0.7
				c1,0.5,1.7,1.1,2.2,1.9c0.5,0.8,0.8,1.8,0.8,2.9v0.3c0,0.3-0.1,0.4-0.4,0.4h-2.5c-0.3,0-0.4-0.1-0.4-0.3v-0.3
				c0-0.7-0.3-1.3-0.8-1.8c-0.6-0.5-1.3-0.8-2.3-0.8c-0.8,0-1.4,0.2-1.8,0.5c-0.4,0.3-0.6,0.8-0.6,1.4c0,0.4,0.1,0.8,0.4,1.1
				c0.2,0.3,0.6,0.6,1.1,0.8c0.5,0.2,1.2,0.5,2.3,0.9c1.1,0.4,2,0.8,2.7,1.2c0.7,0.3,1.2,0.8,1.8,1.5c0.5,0.7,0.8,1.6,0.8,2.7
				c0,1-0.3,2-0.8,2.8c-0.5,0.8-1.2,1.4-2.1,1.8c-0.9,0.4-2,0.6-3.3,0.6S167.9,143.9,167,143.5z"/>
			<path class="st0" d="M184.2,143.4c-0.9-0.5-1.7-1.2-2.2-2.2c-0.5-0.9-0.8-2-0.8-3.2v-11.6c0-0.3,0.1-0.4,0.4-0.4h2.6
				c0.3,0,0.4,0.1,0.4,0.4V138c0,0.9,0.3,1.6,0.8,2.2c0.5,0.6,1.2,0.8,2.1,0.8c0.8,0,1.5-0.3,2.1-0.8c0.5-0.6,0.8-1.3,0.8-2.2v-11.6
				c0-0.3,0.1-0.4,0.4-0.4h2.6c0.3,0,0.4,0.1,0.4,0.4V138c0,1.2-0.3,2.3-0.8,3.2c-0.5,0.9-1.2,1.7-2.2,2.2c-0.9,0.5-2,0.8-3.3,0.8
				C186.2,144.1,185.1,143.9,184.2,143.4z"/>
			<path class="st0" d="M201.4,143.4c-0.9-0.5-1.7-1.3-2.2-2.2c-0.5-0.9-0.8-2-0.8-3.3v-5.9c0-1.2,0.3-2.3,0.8-3.3
				c0.5-0.9,1.2-1.7,2.2-2.2c0.9-0.5,2-0.8,3.3-0.8c1.2,0,2.3,0.2,3.3,0.7c0.9,0.5,1.7,1.2,2.2,2.1c0.5,0.9,0.8,1.9,0.8,3.1
				c0,0.2-0.1,0.2-0.4,0.3l-2.6,0.2h-0.1c-0.2,0-0.3,0-0.3-0.1v-0.2c0-0.9-0.3-1.6-0.8-2.2c-0.5-0.5-1.2-0.8-2.1-0.8
				c-0.9,0-1.6,0.3-2.1,0.8c-0.5,0.5-0.8,1.3-0.8,2.2v6.2c0,0.9,0.3,1.6,0.8,2.2c0.5,0.5,1.2,0.8,2.1,0.8c0.8,0,1.5-0.3,2.1-0.8
				c0.5-0.5,0.8-1.3,0.8-2.2c0-0.1,0-0.2,0.1-0.2c0.1-0.1,0.2-0.1,0.3-0.1l2.6,0.1c0.3,0,0.4,0.1,0.4,0.1v0.1c0,1.2-0.3,2.2-0.8,3.1
				c-0.5,0.9-1.2,1.6-2.2,2.1c-0.9,0.5-2,0.7-3.3,0.7C203.5,144.1,202.4,143.9,201.4,143.4z"/>
			<path class="st0" d="M218.6,143.4c-0.9-0.5-1.7-1.3-2.2-2.2c-0.5-0.9-0.8-2-0.8-3.3v-5.9c0-1.2,0.3-2.3,0.8-3.3
				c0.5-0.9,1.2-1.7,2.2-2.2c0.9-0.5,2-0.8,3.3-0.8c1.2,0,2.3,0.2,3.3,0.7c0.9,0.5,1.7,1.2,2.2,2.1c0.5,0.9,0.8,1.9,0.8,3.1
				c0,0.2-0.1,0.2-0.4,0.3l-2.6,0.2H225c-0.2,0-0.3,0-0.3-0.1v-0.2c0-0.9-0.3-1.6-0.8-2.2c-0.5-0.5-1.2-0.8-2.1-0.8
				c-0.9,0-1.6,0.3-2.1,0.8c-0.5,0.5-0.8,1.3-0.8,2.2v6.2c0,0.9,0.3,1.6,0.8,2.2c0.5,0.5,1.2,0.8,2.1,0.8c0.8,0,1.5-0.3,2.1-0.8
				c0.5-0.5,0.8-1.3,0.8-2.2c0-0.1,0-0.2,0.1-0.2c0.1-0.1,0.2-0.1,0.3-0.1l2.6,0.1c0.3,0,0.4,0.1,0.4,0.1v0.1c0,1.2-0.3,2.2-0.8,3.1
				c-0.5,0.9-1.2,1.6-2.2,2.1c-0.9,0.5-2,0.7-3.3,0.7C220.6,144.1,219.5,143.9,218.6,143.4z"/>
			<path class="st0" d="M244.4,129h-7.7c-0.1,0-0.1,0.1-0.1,0.2v3.9c0,0.1,0,0.2,0.1,0.2h5c0.3,0,0.4,0.1,0.4,0.4v2.2
				c0,0.3-0.1,0.4-0.4,0.4h-5c-0.1,0-0.1,0.1-0.1,0.2v4.1c0,0.1,0,0.2,0.1,0.2h7.7c0.3,0,0.4,0.1,0.4,0.4v2.2c0,0.3-0.1,0.4-0.4,0.4
				h-10.8c-0.3,0-0.4-0.1-0.4-0.4v-17.1c0-0.3,0.1-0.4,0.4-0.4h10.8c0.3,0,0.4,0.1,0.4,0.4v2.2C244.8,128.9,244.6,129,244.4,129z"/>
			<path class="st0" d="M252.1,143.5c-0.9-0.4-1.7-1.1-2.2-1.9c-0.5-0.8-0.8-1.8-0.8-2.8v-0.4c0-0.3,0.1-0.4,0.4-0.4h2.5
				c0.3,0,0.4,0.1,0.4,0.3v0.4c0,0.7,0.3,1.3,0.9,1.7c0.6,0.5,1.3,0.7,2.3,0.7c0.8,0,1.5-0.2,1.9-0.6c0.4-0.4,0.6-0.9,0.6-1.4
				c0-0.4-0.1-0.8-0.4-1c-0.3-0.3-0.6-0.5-1-0.7c-0.4-0.2-1.1-0.5-2.1-0.9c-1.1-0.4-2-0.8-2.7-1.2c-0.7-0.4-1.4-1-1.9-1.7
				c-0.5-0.7-0.8-1.6-0.8-2.6c0-1,0.2-1.9,0.7-2.7c0.5-0.8,1.2-1.4,2.1-1.8c0.9-0.4,1.9-0.6,3-0.6c1.2,0,2.3,0.2,3.3,0.7
				c1,0.5,1.7,1.1,2.2,1.9c0.5,0.8,0.8,1.8,0.8,2.9v0.3c0,0.3-0.1,0.4-0.4,0.4h-2.5c-0.3,0-0.4-0.1-0.4-0.3v-0.3
				c0-0.7-0.3-1.3-0.8-1.8c-0.6-0.5-1.3-0.8-2.3-0.8c-0.8,0-1.4,0.2-1.8,0.5c-0.4,0.3-0.6,0.8-0.6,1.4c0,0.4,0.1,0.8,0.4,1.1
				c0.2,0.3,0.6,0.6,1.1,0.8c0.5,0.2,1.2,0.5,2.3,0.9c1.1,0.4,2,0.8,2.7,1.2c0.7,0.3,1.2,0.8,1.8,1.5c0.5,0.7,0.8,1.6,0.8,2.7
				c0,1-0.3,2-0.8,2.8c-0.5,0.8-1.2,1.4-2.1,1.8c-0.9,0.4-2,0.6-3.3,0.6C254.1,144.1,253,143.9,252.1,143.5z"/>
			<path class="st0" d="M268.8,143.5c-0.9-0.4-1.7-1.1-2.2-1.9c-0.5-0.8-0.8-1.8-0.8-2.8v-0.4c0-0.3,0.1-0.4,0.4-0.4h2.5
				c0.3,0,0.4,0.1,0.4,0.3v0.4c0,0.7,0.3,1.3,0.9,1.7c0.6,0.5,1.3,0.7,2.3,0.7c0.8,0,1.5-0.2,1.9-0.6c0.4-0.4,0.6-0.9,0.6-1.4
				c0-0.4-0.1-0.8-0.4-1c-0.3-0.3-0.6-0.5-1-0.7c-0.4-0.2-1.1-0.5-2.1-0.9c-1.1-0.4-2-0.8-2.7-1.2c-0.7-0.4-1.4-1-1.9-1.7
				c-0.5-0.7-0.8-1.6-0.8-2.6c0-1,0.2-1.9,0.7-2.7c0.5-0.8,1.2-1.4,2.1-1.8c0.9-0.4,1.9-0.6,3-0.6c1.2,0,2.3,0.2,3.3,0.7
				c1,0.5,1.7,1.1,2.2,1.9c0.5,0.8,0.8,1.8,0.8,2.9v0.3c0,0.3-0.1,0.4-0.4,0.4h-2.5c-0.3,0-0.4-0.1-0.4-0.3v-0.3
				c0-0.7-0.3-1.3-0.8-1.8c-0.6-0.5-1.3-0.8-2.3-0.8c-0.8,0-1.4,0.2-1.8,0.5c-0.4,0.3-0.6,0.8-0.6,1.4c0,0.4,0.1,0.8,0.4,1.1
				c0.2,0.3,0.6,0.6,1.1,0.8c0.5,0.2,1.2,0.5,2.3,0.9c1.1,0.4,2,0.8,2.7,1.2c0.7,0.3,1.2,0.8,1.8,1.5c0.5,0.7,0.8,1.6,0.8,2.7
				c0,1-0.3,2-0.8,2.8c-0.5,0.8-1.2,1.4-2.1,1.8c-0.9,0.4-2,0.6-3.3,0.6C270.9,144.1,269.8,143.9,268.8,143.5z"/>
		</g>
	</g>
	<g>
		<path class="st0" d="M111.7,133.2h-8.5c-0.5,0-1-0.3-1.2-0.8l-4.6-12.1l-6.3,6.6v5.1c0,0.7-0.6,1.3-1.3,1.3h-8.9
			c-0.7,0-1.3-0.6-1.3-1.3v-6.4c0-0.3,0.1-0.7,0.4-0.9l28.6-28.8h-6.6l-11.9,12c-0.4,0.4-0.9,0.5-1.4,0.3c-0.5-0.2-0.8-0.7-0.8-1.2
			v-21h-5.9v31.3c0,0.7-0.6,1.3-1.3,1.3c-0.7,0-1.3-0.6-1.3-1.3V84.6c0-0.7,0.6-1.3,1.3-1.3h8.4c0.7,0,1.3,0.6,1.3,1.3v19.2
			l10.1-10.2c0.2-0.2,0.6-0.4,0.9-0.4h10.2c0.5,0,1,0.3,1.2,0.8c0.2,0.5,0.1,1-0.3,1.4L82.2,126v4.6h6.4v-4.3c0-0.3,0.1-0.6,0.4-0.9
			l8.1-8.4c0.3-0.3,0.7-0.5,1.2-0.4c0.4,0.1,0.8,0.4,0.9,0.8l5,13.2h5.8l-7.3-19.8c-0.2-0.7,0.1-1.4,0.7-1.6
			c0.7-0.2,1.4,0.1,1.6,0.7l8,21.5c0.1,0.4,0.1,0.8-0.1,1.2C112.5,133,112.1,133.2,111.7,133.2z"/>
		<path class="st0" d="M141.1,157.5H45.8c-0.8,0-1.5-0.7-1.5-1.5V60.6c0-0.8,0.7-1.5,1.5-1.5h95.4c0.8,0,1.5,0.7,1.5,1.5V156
			C142.6,156.8,142,157.5,141.1,157.5z M46.8,154.9h93.3V61.6H46.8V154.9z"/>
	</g>
</g>
</svg>
